# xmcd
#
# Track frame offsets: 
#        150
#        11721
#        26217
#
# Disc length: 528 seconds
#
# Revision: 0
# Processed by: cddbd v1.5.2PL0 Copyright (c) Steve Scherf et al.
# Submitted via: ExactAudioCopyFreeDBPlugin 1.0
#
DISCID=1e020e03
DTITLE=Janusz Laskowski - JAGIELLONIA JEST O'K
DYEAR=2012
DGENRE=New Age
TTITLE0=JAGIELLONIA JEST O'K
TTITLE1=WALCZYMY DO KOŃCA
TTITLE2=ŚNIŁ MI SIĘ RODZINNY DOM
EXTD=
EXTT0=
EXTT1=
EXTT2=
PLAYORDER=
